<svg width="48" height="48" viewBox="0 0 48 48" fill="none" xmlns="http://www.w3.org/2000/svg">
<g clip-path="url(#clip0_477_996)">
<path d="M14.262 39.5689C13.809 38.7769 13.781 37.8289 14.128 36.9999H4.762L19.081 12.6689L23.734 20.5759L26.055 16.6329L21.697 9.22893C21.146 8.29193 20.169 7.73293 19.082 7.73193C19.082 7.73193 19.082 7.73193 19.081 7.73193C17.995 7.73193 17.017 8.29093 16.465 9.22793L0.458002 36.4249C-0.092998 37.3609 -0.100998 38.5279 0.438002 39.4709C0.977002 40.4139 1.988 40.9999 3.074 40.9999H16.512C15.58 40.9079 14.732 40.3919 14.262 39.5689Z" fill="#1DE9B6"/>
<path d="M47.65 36.641L33.478 12.562C32.948 11.662 32.009 11.125 30.965 11.125C29.921 11.125 28.981 11.662 28.451 12.562L26.055 16.633L28.376 20.576L30.965 16.178L43 37H38C38.258 37.802 38.151 38.724 37.724 39.471C37.185 40.414 36.086 41 35 41C35.001 41.013 34.999 40.987 35 41H45C46.043 41 47.149 40.475 47.667 39.569C48.186 38.664 48.179 37.542 47.65 36.641Z" fill="#00BFA5"/>
<path d="M38 36.9998C37.932 36.7898 37.818 36.6188 37.704 36.4248L28.376 20.5758L26.055 16.6328L23.734 20.5758L14.279 36.6408C14.212 36.7538 14.178 36.8798 14.128 36.9998C13.781 37.8288 13.808 38.7778 14.262 39.5688C14.732 40.3908 15.58 40.9068 16.512 40.9998H35.088C36.174 40.9998 37.184 40.4138 37.723 39.4708C38.151 38.7238 38.258 37.8018 38 36.9998ZM26.055 24.5188L33.401 36.9998H18.71L26.055 24.5188Z" fill="#00838F"/>
</g>
<defs>
<clipPath id="clip0_477_996">
<rect width="48" height="48" fill="white"/>
</clipPath>
</defs>
</svg>
